<svg width="29" height="21" viewBox="0 0 29 21" fill="none" xmlns="http://www.w3.org/2000/svg">
<path d="M10.9608 20.8951L10.9527 20.8916L10.927 20.8776C10.7768 20.795 10.6279 20.7102 10.4802 20.6232C8.70428 19.568 7.04465 18.3284 5.52883 16.9249C2.84433 14.4201 0 10.7031 0 6.12508C0 2.70908 2.87467 8.27764e-05 6.34433 8.27764e-05C7.30888 -0.00464155 8.26208 0.208147 9.13304 0.622622C10.004 1.0371 10.7703 1.6426 11.375 2.39408C11.9798 1.64244 12.7463 1.03685 13.6175 0.622368C14.4887 0.207886 15.4421 -0.00481723 16.4068 8.27764e-05C19.8753 8.27764e-05 22.75 2.70908 22.75 6.12508C22.75 10.7042 19.9057 14.4212 17.2212 16.9237C15.7054 18.3272 14.0457 19.5669 12.2698 20.6221C12.1221 20.7094 11.9732 20.7946 11.823 20.8776L11.7973 20.8916L11.7892 20.8962L11.7857 20.8974C11.6592 20.9644 11.5182 20.9995 11.375 20.9995C11.2318 20.9995 11.0908 20.9644 10.9643 20.8974L10.9608 20.8951Z" fill="white"/>
<path d="M20.8933 18.4667L24.0833 12.2333H21.8833V8.2L18.5833 14.4333H20.8933V18.4667ZM21.3333 20.6667C20.3189 20.6667 19.3656 20.4742 18.4733 20.0892C17.5811 19.7042 16.805 19.1817 16.145 18.5217C15.485 17.8617 14.9625 17.0856 14.5775 16.1933C14.1925 15.3011 14 14.3478 14 13.3333C14 12.3189 14.1925 11.3656 14.5775 10.4733C14.9625 9.58111 15.485 8.805 16.145 8.145C16.805 7.485 17.5811 6.9625 18.4733 6.5775C19.3656 6.1925 20.3189 6 21.3333 6C22.3478 6 23.3011 6.1925 24.1933 6.5775C25.0856 6.9625 25.8617 7.485 26.5217 8.145C27.1817 8.805 27.7042 9.58111 28.0892 10.4733C28.4742 11.3656 28.6667 12.3189 28.6667 13.3333C28.6667 14.3478 28.4742 15.3011 28.0892 16.1933C27.7042 17.0856 27.1817 17.8617 26.5217 18.5217C25.8617 19.1817 25.0856 19.7042 24.1933 20.0892C23.3011 20.4742 22.3478 20.6667 21.3333 20.6667Z" fill="#894189"/>
<path d="M20.2667 17.3333L23.1667 11.6667H21.1667V8L18.1667 13.6667H20.2667V17.3333ZM20.6667 19.3333C19.7444 19.3333 18.8778 19.1583 18.0667 18.8083C17.2556 18.4583 16.55 17.9833 15.95 17.3833C15.35 16.7833 14.875 16.0778 14.525 15.2667C14.175 14.4556 14 13.5889 14 12.6667C14 11.7444 14.175 10.8778 14.525 10.0667C14.875 9.25556 15.35 8.55 15.95 7.95C16.55 7.35 17.2556 6.875 18.0667 6.525C18.8778 6.175 19.7444 6 20.6667 6C21.5889 6 22.4556 6.175 23.2667 6.525C24.0778 6.875 24.7833 7.35 25.3833 7.95C25.9833 8.55 26.4583 9.25556 26.8083 10.0667C27.1583 10.8778 27.3333 11.7444 27.3333 12.6667C27.3333 13.5889 27.1583 14.4556 26.8083 15.2667C26.4583 16.0778 25.9833 16.7833 25.3833 17.3833C24.7833 17.9833 24.0778 18.4583 23.2667 18.8083C22.4556 19.1583 21.5889 19.3333 20.6667 19.3333Z" fill="white"/>
</svg>
