<svg width="22" height="22" viewBox="0 0 22 22" fill="none" xmlns="http://www.w3.org/2000/svg">
<path d="M9.63235 17.9945H11.4847V16.6714C12.3668 16.5126 13.1254 16.1686 13.7605 15.6393C14.3956 15.1101 14.7132 14.325 14.7132 13.2842C14.7132 12.5432 14.5015 11.864 14.0781 11.2466C13.6547 10.6291 12.8079 10.091 11.5377 9.63235C10.4792 9.27952 9.74702 8.97079 9.34126 8.70616C8.9355 8.44154 8.73263 8.07988 8.73263 7.6212C8.73263 7.16252 8.89581 6.80086 9.22218 6.53624C9.54855 6.27161 10.0205 6.1393 10.6379 6.1393C11.2025 6.1393 11.6435 6.27602 11.9611 6.54947C12.2786 6.82292 12.5079 7.16252 12.6491 7.56828L14.3427 6.88025C14.1486 6.26279 13.7914 5.72472 13.2709 5.26604C12.7505 4.80735 12.1728 4.55155 11.5377 4.49863V3.1755H9.68528V4.49863C8.80319 4.69268 8.11517 5.0808 7.6212 5.66298C7.12723 6.24515 6.88025 6.89789 6.88025 7.6212C6.88025 8.45036 7.12282 9.12074 7.60797 9.63235C8.09311 10.144 8.85612 10.585 9.89698 10.9555C11.0084 11.3612 11.7802 11.7229 12.2124 12.0404C12.6447 12.358 12.8608 12.7726 12.8608 13.2842C12.8608 13.8664 12.6535 14.2942 12.2389 14.5676C11.8243 14.8411 11.326 14.9778 10.7438 14.9778C10.1616 14.9778 9.64558 14.7969 9.19572 14.4353C8.74586 14.0736 8.41508 13.5312 8.20338 12.8079L6.45685 13.4959C6.70383 14.3427 7.08754 15.0263 7.60797 15.5467C8.1284 16.0671 8.80319 16.4244 9.63235 16.6185V17.9945ZM10.585 21.17C9.12074 21.17 7.74469 20.8921 6.45685 20.3364C5.16901 19.7807 4.04876 19.0265 3.09611 18.0739C2.14346 17.1212 1.38928 16.001 0.833569 14.7132C0.277856 13.4253 0 12.0493 0 10.585C0 9.12074 0.277856 7.74469 0.833569 6.45685C1.38928 5.16901 2.14346 4.04876 3.09611 3.09611C4.04876 2.14346 5.16901 1.38928 6.45685 0.833569C7.74469 0.277856 9.12074 0 10.585 0C12.0493 0 13.4253 0.277856 14.7132 0.833569C16.001 1.38928 17.1212 2.14346 18.0739 3.09611C19.0265 4.04876 19.7807 5.16901 20.3364 6.45685C20.8921 7.74469 21.17 9.12074 21.17 10.585C21.17 12.0493 20.8921 13.4253 20.3364 14.7132C19.7807 16.001 19.0265 17.1212 18.0739 18.0739C17.1212 19.0265 16.001 19.7807 14.7132 20.3364C13.4253 20.8921 12.0493 21.17 10.585 21.17Z" fill="white"/>
</svg>
